<mxfile host="app.diagrams.net" modified="2023-08-29T11:46:27.186Z" agent="Mozilla/5.0 (Windows NT 10.0; Win64; x64) AppleWebKit/537.36 (KHTML, like Gecko) Chrome/116.0.0.0 Safari/537.36" etag="NMVvu3fHLdTDfJFuvLu9" version="21.6.9" type="device">
  <diagram name="Página-1" id="MbaQlHeLYJgBoin0c5NS">
    <mxGraphModel dx="910" dy="521" grid="1" gridSize="10" guides="1" tooltips="1" connect="1" arrows="1" fold="1" page="1" pageScale="1" pageWidth="827" pageHeight="1169" math="0" shadow="0">
      <root>
        <mxCell id="0" />
        <mxCell id="1" parent="0" />
        <mxCell id="vRMYijvf0A109fN9fjne-1" value="Class Raposa" style="swimlane;fontStyle=1;align=center;verticalAlign=top;childLayout=stackLayout;horizontal=1;startSize=26;horizontalStack=0;resizeParent=1;resizeParentMax=0;resizeLast=0;collapsible=1;marginBottom=0;whiteSpace=wrap;html=1;fillColor=#b1ddf0;strokeColor=#10739e;" vertex="1" parent="1">
          <mxGeometry x="20" y="30" width="170" height="410" as="geometry" />
        </mxCell>
        <mxCell id="vRMYijvf0A109fN9fjne-2" value="+Pelagem: string&lt;br&gt;&lt;br&gt;+Tamanho: float&lt;br&gt;&lt;br&gt;+Localização: string&lt;br&gt;&lt;br&gt;+Tipos de cauda: string&lt;br&gt;&lt;br&gt;+Dieta: string&lt;br&gt;&lt;br&gt;+CordosOlhos: string&lt;br&gt;&lt;br&gt;+Orelhas: string&lt;br&gt;&lt;br&gt;+EpectativadaVida: int&lt;br&gt;&lt;br&gt;+Peso: int" style="text;strokeColor=#314354;fillColor=#647687;align=left;verticalAlign=top;spacingLeft=4;spacingRight=4;overflow=hidden;rotatable=0;points=[[0,0.5],[1,0.5]];portConstraint=eastwest;whiteSpace=wrap;html=1;fontColor=#ffffff;" vertex="1" parent="vRMYijvf0A109fN9fjne-1">
          <mxGeometry y="26" width="170" height="264" as="geometry" />
        </mxCell>
        <mxCell id="vRMYijvf0A109fN9fjne-3" value="" style="line;strokeWidth=1;fillColor=none;align=left;verticalAlign=middle;spacingTop=-1;spacingLeft=3;spacingRight=3;rotatable=0;labelPosition=right;points=[];portConstraint=eastwest;strokeColor=inherit;" vertex="1" parent="vRMYijvf0A109fN9fjne-1">
          <mxGeometry y="290" width="170" height="8" as="geometry" />
        </mxCell>
        <mxCell id="vRMYijvf0A109fN9fjne-4" value="+ Comer(): void&lt;br&gt;&lt;br&gt;+Dormir(): void&lt;br&gt;&lt;br&gt;+Procriar(): void&lt;br&gt;&lt;br&gt;Correr(): void&lt;br&gt;&lt;br&gt;+FazerSom(): void" style="text;strokeColor=#314354;fillColor=#647687;align=left;verticalAlign=top;spacingLeft=4;spacingRight=4;overflow=hidden;rotatable=0;points=[[0,0.5],[1,0.5]];portConstraint=eastwest;whiteSpace=wrap;html=1;fontColor=#ffffff;" vertex="1" parent="vRMYijvf0A109fN9fjne-1">
          <mxGeometry y="298" width="170" height="112" as="geometry" />
        </mxCell>
      </root>
    </mxGraphModel>
  </diagram>
</mxfile>
